<mxfile host="app.diagrams.net" agent="Mozilla/5.0 (Windows NT 10.0; Win64; x64) AppleWebKit/537.36 (KHTML, like Gecko) Chrome/133.0.0.0 Safari/537.36 Edg/133.0.0.0" version="26.0.15">
  <diagram id="C5RBs43oDa-KdzZeNtuy" name="Page-1">
    <mxGraphModel dx="1831" dy="807" grid="1" gridSize="10" guides="1" tooltips="1" connect="1" arrows="1" fold="1" page="1" pageScale="1" pageWidth="827" pageHeight="1169" math="0" shadow="0">
      <root>
        <mxCell id="WIyWlLk6GJQsqaUBKTNV-0" />
        <mxCell id="WIyWlLk6GJQsqaUBKTNV-1" parent="WIyWlLk6GJQsqaUBKTNV-0" />
        <mxCell id="ImtSqPIHlffISOj9dpkc-0" value="Start" style="strokeWidth=2;html=1;shape=mxgraph.flowchart.start_1;whiteSpace=wrap;" vertex="1" parent="WIyWlLk6GJQsqaUBKTNV-1">
          <mxGeometry x="314" y="40" width="96" height="50" as="geometry" />
        </mxCell>
        <mxCell id="ImtSqPIHlffISOj9dpkc-1" value="รับ ค่า ของ&amp;nbsp;Process" style="rounded=1;whiteSpace=wrap;html=1;absoluteArcSize=1;arcSize=14;strokeWidth=2;" vertex="1" parent="WIyWlLk6GJQsqaUBKTNV-1">
          <mxGeometry x="319" y="120" width="86" height="40" as="geometry" />
        </mxCell>
        <mxCell id="ImtSqPIHlffISOj9dpkc-2" value="รับ ค่า remaining&lt;div&gt;completed[N]&lt;/div&gt;&lt;div&gt;&amp;nbsp;current_time = 0, total_finished = 0&lt;br&gt;&lt;div&gt;&lt;span style=&quot;color: rgba(0, 0, 0, 0); font-family: monospace; font-size: 0px; text-align: start; text-wrap-mode: nowrap;&quot;&gt;completed[N]%3CmxGraphModel%3E%3Croot%3E%3CmxCell%20id%3D%220%22%2F%3E%3CmxCell%20id%3D%221%22%20parent%3D%220%22%2F%3E%3CmxCell%20id%3D%222%22%20value%3D%22%E0%B8%A3%E0%B8%B1%E0%B8%9A%20%E0%B8%84%E0%B9%88%E0%B8%B2%20%E0%B8%82%E0%B8%AD%E0%B8%87%26amp%3Bnbsp%3BProcess%22%20style%3D%22rounded%3D1%3BwhiteSpace%3Dwrap%3Bhtml%3D1%3BabsoluteArcSize%3D1%3BarcSize%3D14%3BstrokeWidth%3D2%3B%22%20vertex%3D%221%22%20parent%3D%221%22%3E%3CmxGeometry%20x%3D%22319%22%20y%3D%22120%22%20width%3D%2286%22%20height%3D%2240%22%20as%3D%22geometry%22%2F%3E%3C%2FmxCell%3E%3C%2Froot%3E%3C%2FmxGraphModel%3Eint remaining[N];&lt;/span&gt;&lt;/div&gt;&lt;/div&gt;" style="rounded=1;whiteSpace=wrap;html=1;absoluteArcSize=1;arcSize=14;strokeWidth=2;" vertex="1" parent="WIyWlLk6GJQsqaUBKTNV-1">
          <mxGeometry x="302" y="190" width="120" height="60" as="geometry" />
        </mxCell>
        <mxCell id="ImtSqPIHlffISOj9dpkc-3" value="i = 0" style="rounded=1;whiteSpace=wrap;html=1;absoluteArcSize=1;arcSize=14;strokeWidth=2;" vertex="1" parent="WIyWlLk6GJQsqaUBKTNV-1">
          <mxGeometry x="324" y="280" width="86" height="40" as="geometry" />
        </mxCell>
        <mxCell id="ImtSqPIHlffISOj9dpkc-6" style="edgeStyle=orthogonalEdgeStyle;rounded=0;orthogonalLoop=1;jettySize=auto;html=1;" edge="1" parent="WIyWlLk6GJQsqaUBKTNV-1" source="ImtSqPIHlffISOj9dpkc-4">
          <mxGeometry relative="1" as="geometry">
            <mxPoint x="360" y="560" as="targetPoint" />
          </mxGeometry>
        </mxCell>
        <mxCell id="ImtSqPIHlffISOj9dpkc-7" style="edgeStyle=orthogonalEdgeStyle;rounded=0;orthogonalLoop=1;jettySize=auto;html=1;" edge="1" parent="WIyWlLk6GJQsqaUBKTNV-1" source="ImtSqPIHlffISOj9dpkc-4">
          <mxGeometry relative="1" as="geometry">
            <mxPoint x="440" y="395" as="targetPoint" />
          </mxGeometry>
        </mxCell>
        <mxCell id="ImtSqPIHlffISOj9dpkc-4" value="i &amp;lt; N" style="strokeWidth=2;html=1;shape=mxgraph.flowchart.decision;whiteSpace=wrap;" vertex="1" parent="WIyWlLk6GJQsqaUBKTNV-1">
          <mxGeometry x="312" y="360" width="100" height="70" as="geometry" />
        </mxCell>
        <mxCell id="ImtSqPIHlffISOj9dpkc-5" style="edgeStyle=orthogonalEdgeStyle;rounded=0;orthogonalLoop=1;jettySize=auto;html=1;entryX=0.5;entryY=0;entryDx=0;entryDy=0;entryPerimeter=0;" edge="1" parent="WIyWlLk6GJQsqaUBKTNV-1" source="ImtSqPIHlffISOj9dpkc-3" target="ImtSqPIHlffISOj9dpkc-4">
          <mxGeometry relative="1" as="geometry" />
        </mxCell>
        <mxCell id="ImtSqPIHlffISOj9dpkc-8" value="False" style="text;html=1;align=center;verticalAlign=middle;resizable=0;points=[];autosize=1;strokeColor=none;fillColor=none;" vertex="1" parent="WIyWlLk6GJQsqaUBKTNV-1">
          <mxGeometry x="365" y="418" width="50" height="30" as="geometry" />
        </mxCell>
        <mxCell id="ImtSqPIHlffISOj9dpkc-9" value="Ture" style="text;html=1;align=center;verticalAlign=middle;resizable=0;points=[];autosize=1;strokeColor=none;fillColor=none;" vertex="1" parent="WIyWlLk6GJQsqaUBKTNV-1">
          <mxGeometry x="395" y="348" width="50" height="30" as="geometry" />
        </mxCell>
        <mxCell id="ImtSqPIHlffISOj9dpkc-11" value="remaining[i] = proc[i].burst&lt;div&gt;proc[i].start = -1&lt;/div&gt;" style="rounded=1;whiteSpace=wrap;html=1;absoluteArcSize=1;arcSize=14;strokeWidth=2;" vertex="1" parent="WIyWlLk6GJQsqaUBKTNV-1">
          <mxGeometry x="445" y="375" width="175" height="85" as="geometry" />
        </mxCell>
        <mxCell id="ImtSqPIHlffISOj9dpkc-14" style="edgeStyle=orthogonalEdgeStyle;rounded=0;orthogonalLoop=1;jettySize=auto;html=1;" edge="1" parent="WIyWlLk6GJQsqaUBKTNV-1" source="ImtSqPIHlffISOj9dpkc-12">
          <mxGeometry relative="1" as="geometry">
            <mxPoint x="370" y="560" as="targetPoint" />
          </mxGeometry>
        </mxCell>
        <mxCell id="ImtSqPIHlffISOj9dpkc-12" value="printf(&quot;Queue: &quot;)" style="shape=parallelogram;html=1;strokeWidth=2;perimeter=parallelogramPerimeter;whiteSpace=wrap;rounded=1;arcSize=12;size=0.23;" vertex="1" parent="WIyWlLk6GJQsqaUBKTNV-1">
          <mxGeometry x="470" y="490" width="100" height="60" as="geometry" />
        </mxCell>
        <mxCell id="ImtSqPIHlffISOj9dpkc-13" style="edgeStyle=orthogonalEdgeStyle;rounded=0;orthogonalLoop=1;jettySize=auto;html=1;entryX=0.627;entryY=-0.05;entryDx=0;entryDy=0;entryPerimeter=0;" edge="1" parent="WIyWlLk6GJQsqaUBKTNV-1" source="ImtSqPIHlffISOj9dpkc-11" target="ImtSqPIHlffISOj9dpkc-12">
          <mxGeometry relative="1" as="geometry" />
        </mxCell>
        <mxCell id="ImtSqPIHlffISOj9dpkc-15" value="" style="strokeWidth=2;html=1;shape=mxgraph.flowchart.start_2;whiteSpace=wrap;" vertex="1" parent="WIyWlLk6GJQsqaUBKTNV-1">
          <mxGeometry x="357" y="560" width="20" height="20" as="geometry" />
        </mxCell>
        <mxCell id="ImtSqPIHlffISOj9dpkc-19" style="edgeStyle=orthogonalEdgeStyle;rounded=0;orthogonalLoop=1;jettySize=auto;html=1;entryX=0.5;entryY=0;entryDx=0;entryDy=0;" edge="1" parent="WIyWlLk6GJQsqaUBKTNV-1" source="ImtSqPIHlffISOj9dpkc-16" target="ImtSqPIHlffISOj9dpkc-18">
          <mxGeometry relative="1" as="geometry" />
        </mxCell>
        <mxCell id="ImtSqPIHlffISOj9dpkc-57" style="edgeStyle=orthogonalEdgeStyle;rounded=0;orthogonalLoop=1;jettySize=auto;html=1;" edge="1" parent="WIyWlLk6GJQsqaUBKTNV-1" source="ImtSqPIHlffISOj9dpkc-16">
          <mxGeometry relative="1" as="geometry">
            <mxPoint x="1230" y="1540" as="targetPoint" />
          </mxGeometry>
        </mxCell>
        <mxCell id="ImtSqPIHlffISOj9dpkc-16" value="total_finished &amp;lt; N" style="strokeWidth=2;html=1;shape=mxgraph.flowchart.decision;whiteSpace=wrap;" vertex="1" parent="WIyWlLk6GJQsqaUBKTNV-1">
          <mxGeometry x="317" y="620" width="100" height="70" as="geometry" />
        </mxCell>
        <mxCell id="ImtSqPIHlffISOj9dpkc-17" style="edgeStyle=orthogonalEdgeStyle;rounded=0;orthogonalLoop=1;jettySize=auto;html=1;entryX=0.5;entryY=0;entryDx=0;entryDy=0;entryPerimeter=0;" edge="1" parent="WIyWlLk6GJQsqaUBKTNV-1" source="ImtSqPIHlffISOj9dpkc-15" target="ImtSqPIHlffISOj9dpkc-16">
          <mxGeometry relative="1" as="geometry" />
        </mxCell>
        <mxCell id="ImtSqPIHlffISOj9dpkc-18" value="int idx = -1&lt;div&gt;int min_time = INT_MAX;&lt;/div&gt;" style="rounded=1;whiteSpace=wrap;html=1;" vertex="1" parent="WIyWlLk6GJQsqaUBKTNV-1">
          <mxGeometry x="280.5" y="720" width="173" height="60" as="geometry" />
        </mxCell>
        <mxCell id="ImtSqPIHlffISOj9dpkc-21" value="i = 0" style="rounded=1;whiteSpace=wrap;html=1;absoluteArcSize=1;arcSize=14;strokeWidth=2;" vertex="1" parent="WIyWlLk6GJQsqaUBKTNV-1">
          <mxGeometry x="312" y="820" width="100" height="50" as="geometry" />
        </mxCell>
        <mxCell id="ImtSqPIHlffISOj9dpkc-49" style="edgeStyle=orthogonalEdgeStyle;rounded=0;orthogonalLoop=1;jettySize=auto;html=1;entryX=0;entryY=0.5;entryDx=0;entryDy=0;" edge="1" parent="WIyWlLk6GJQsqaUBKTNV-1" source="ImtSqPIHlffISOj9dpkc-22" target="ImtSqPIHlffISOj9dpkc-41">
          <mxGeometry relative="1" as="geometry">
            <Array as="points">
              <mxPoint x="150" y="925" />
              <mxPoint x="150" y="1460" />
            </Array>
          </mxGeometry>
        </mxCell>
        <mxCell id="ImtSqPIHlffISOj9dpkc-22" value=" i &amp;lt; N" style="strokeWidth=2;html=1;shape=mxgraph.flowchart.decision;whiteSpace=wrap;" vertex="1" parent="WIyWlLk6GJQsqaUBKTNV-1">
          <mxGeometry x="313" y="900" width="100" height="50" as="geometry" />
        </mxCell>
        <mxCell id="ImtSqPIHlffISOj9dpkc-25" style="edgeStyle=orthogonalEdgeStyle;rounded=0;orthogonalLoop=1;jettySize=auto;html=1;" edge="1" parent="WIyWlLk6GJQsqaUBKTNV-1" source="ImtSqPIHlffISOj9dpkc-23">
          <mxGeometry relative="1" as="geometry">
            <mxPoint x="579.9999999999999" y="1025" as="targetPoint" />
          </mxGeometry>
        </mxCell>
        <mxCell id="ImtSqPIHlffISOj9dpkc-28" style="edgeStyle=orthogonalEdgeStyle;rounded=0;orthogonalLoop=1;jettySize=auto;html=1;entryX=0;entryY=0.5;entryDx=0;entryDy=0;entryPerimeter=0;" edge="1" parent="WIyWlLk6GJQsqaUBKTNV-1" source="ImtSqPIHlffISOj9dpkc-23" target="ImtSqPIHlffISOj9dpkc-31">
          <mxGeometry relative="1" as="geometry">
            <mxPoint x="362" y="1140" as="targetPoint" />
          </mxGeometry>
        </mxCell>
        <mxCell id="ImtSqPIHlffISOj9dpkc-23" value=" if (proc[i].arrival &amp;lt;= current_time &amp;amp;&amp;amp; !completed[i] &amp;amp;&amp;amp; remaining[i] &amp;lt; min_time)" style="strokeWidth=2;html=1;shape=mxgraph.flowchart.decision;whiteSpace=wrap;" vertex="1" parent="WIyWlLk6GJQsqaUBKTNV-1">
          <mxGeometry x="242" y="980" width="240" height="90" as="geometry" />
        </mxCell>
        <mxCell id="ImtSqPIHlffISOj9dpkc-24" value="Ture" style="text;html=1;align=center;verticalAlign=middle;resizable=0;points=[];autosize=1;strokeColor=none;fillColor=none;" vertex="1" parent="WIyWlLk6GJQsqaUBKTNV-1">
          <mxGeometry x="507.5" y="990" width="50" height="30" as="geometry" />
        </mxCell>
        <mxCell id="ImtSqPIHlffISOj9dpkc-30" style="edgeStyle=orthogonalEdgeStyle;rounded=0;orthogonalLoop=1;jettySize=auto;html=1;" edge="1" parent="WIyWlLk6GJQsqaUBKTNV-1" source="ImtSqPIHlffISOj9dpkc-26">
          <mxGeometry relative="1" as="geometry">
            <mxPoint x="380" y="1140" as="targetPoint" />
            <Array as="points">
              <mxPoint x="655" y="1088" />
              <mxPoint x="656" y="1088" />
              <mxPoint x="656" y="1130" />
            </Array>
          </mxGeometry>
        </mxCell>
        <mxCell id="ImtSqPIHlffISOj9dpkc-26" value="min_time = remaining[i]&lt;div&gt;idx = i&lt;/div&gt;" style="rounded=1;whiteSpace=wrap;html=1;absoluteArcSize=1;arcSize=14;strokeWidth=2;" vertex="1" parent="WIyWlLk6GJQsqaUBKTNV-1">
          <mxGeometry x="580" y="1005" width="150" height="40" as="geometry" />
        </mxCell>
        <mxCell id="ImtSqPIHlffISOj9dpkc-29" value="false" style="text;html=1;align=center;verticalAlign=middle;resizable=0;points=[];autosize=1;strokeColor=none;fillColor=none;" vertex="1" parent="WIyWlLk6GJQsqaUBKTNV-1">
          <mxGeometry x="375" y="1088" width="50" height="30" as="geometry" />
        </mxCell>
        <mxCell id="ImtSqPIHlffISOj9dpkc-34" value="" style="edgeStyle=orthogonalEdgeStyle;rounded=0;orthogonalLoop=1;jettySize=auto;html=1;" edge="1" parent="WIyWlLk6GJQsqaUBKTNV-1" source="ImtSqPIHlffISOj9dpkc-31" target="ImtSqPIHlffISOj9dpkc-33">
          <mxGeometry relative="1" as="geometry" />
        </mxCell>
        <mxCell id="ImtSqPIHlffISOj9dpkc-31" value="" style="strokeWidth=2;html=1;shape=mxgraph.flowchart.start_2;whiteSpace=wrap;" vertex="1" parent="WIyWlLk6GJQsqaUBKTNV-1">
          <mxGeometry x="365" y="1140" width="20" height="20" as="geometry" />
        </mxCell>
        <mxCell id="ImtSqPIHlffISOj9dpkc-39" style="edgeStyle=orthogonalEdgeStyle;rounded=0;orthogonalLoop=1;jettySize=auto;html=1;entryX=0;entryY=0.25;entryDx=0;entryDy=0;" edge="1" parent="WIyWlLk6GJQsqaUBKTNV-1" source="ImtSqPIHlffISOj9dpkc-33" target="ImtSqPIHlffISOj9dpkc-38">
          <mxGeometry relative="1" as="geometry" />
        </mxCell>
        <mxCell id="ImtSqPIHlffISOj9dpkc-47" style="edgeStyle=orthogonalEdgeStyle;rounded=0;orthogonalLoop=1;jettySize=auto;html=1;entryX=0.5;entryY=0;entryDx=0;entryDy=0;" edge="1" parent="WIyWlLk6GJQsqaUBKTNV-1" source="ImtSqPIHlffISOj9dpkc-33" target="ImtSqPIHlffISOj9dpkc-45">
          <mxGeometry relative="1" as="geometry" />
        </mxCell>
        <mxCell id="ImtSqPIHlffISOj9dpkc-33" value="&lt;span style=&quot;color: oklab(0.321044 -0.000249296 -0.00927344); font-family: &amp;quot;gg mono&amp;quot;, &amp;quot;Source Code Pro&amp;quot;, Consolas, &amp;quot;Andale Mono WT&amp;quot;, &amp;quot;Andale Mono&amp;quot;, &amp;quot;Lucida Console&amp;quot;, &amp;quot;Lucida Sans Typewriter&amp;quot;, &amp;quot;DejaVu Sans Mono&amp;quot;, &amp;quot;Bitstream Vera Sans Mono&amp;quot;, &amp;quot;Liberation Mono&amp;quot;, &amp;quot;Nimbus Mono L&amp;quot;, Monaco, &amp;quot;Courier New&amp;quot;, Courier, monospace; font-size: 14px; text-align: start; white-space: pre; background-color: oklab(0.963876 -0.000228494 -0.00284719);&quot;&gt;remaining[idx] == 0&lt;/span&gt;" style="strokeWidth=2;html=1;shape=mxgraph.flowchart.decision;whiteSpace=wrap;" vertex="1" parent="WIyWlLk6GJQsqaUBKTNV-1">
          <mxGeometry x="230" y="1210" width="240" height="90" as="geometry" />
        </mxCell>
        <mxCell id="ImtSqPIHlffISOj9dpkc-37" value="Ture" style="text;html=1;align=center;verticalAlign=middle;resizable=0;points=[];autosize=1;strokeColor=none;fillColor=none;" vertex="1" parent="WIyWlLk6GJQsqaUBKTNV-1">
          <mxGeometry x="475" y="1218" width="50" height="30" as="geometry" />
        </mxCell>
        <mxCell id="ImtSqPIHlffISOj9dpkc-43" style="edgeStyle=orthogonalEdgeStyle;rounded=0;orthogonalLoop=1;jettySize=auto;html=1;entryX=1;entryY=0;entryDx=0;entryDy=0;" edge="1" parent="WIyWlLk6GJQsqaUBKTNV-1" source="ImtSqPIHlffISOj9dpkc-38" target="ImtSqPIHlffISOj9dpkc-45">
          <mxGeometry relative="1" as="geometry">
            <mxPoint x="570.0000000000002" y="1340" as="targetPoint" />
            <Array as="points">
              <mxPoint x="835" y="1380" />
              <mxPoint x="354" y="1380" />
            </Array>
          </mxGeometry>
        </mxCell>
        <mxCell id="ImtSqPIHlffISOj9dpkc-38" value="proc[idx].finish = current_time + 1;&amp;nbsp;&lt;div&gt;proc[idx].turnaround = proc[idx].finish - proc[idx].arrival;&amp;nbsp;&lt;/div&gt;&lt;div&gt;proc[idx].waiting = proc[idx].turnaround - proc[idx].burst;&amp;nbsp;&lt;/div&gt;&lt;div&gt;completed[idx] = true; total_finished++&lt;/div&gt;" style="rounded=1;whiteSpace=wrap;html=1;absoluteArcSize=1;arcSize=14;strokeWidth=2;" vertex="1" parent="WIyWlLk6GJQsqaUBKTNV-1">
          <mxGeometry x="525" y="1200" width="620" height="88" as="geometry" />
        </mxCell>
        <mxCell id="ImtSqPIHlffISOj9dpkc-40" value="false" style="text;html=1;align=center;verticalAlign=middle;resizable=0;points=[];autosize=1;strokeColor=none;fillColor=none;" vertex="1" parent="WIyWlLk6GJQsqaUBKTNV-1">
          <mxGeometry x="410" y="1308" width="50" height="30" as="geometry" />
        </mxCell>
        <mxCell id="ImtSqPIHlffISOj9dpkc-41" value="i +1" style="rounded=1;whiteSpace=wrap;html=1;" vertex="1" parent="WIyWlLk6GJQsqaUBKTNV-1">
          <mxGeometry x="280.5" y="1430" width="120" height="60" as="geometry" />
        </mxCell>
        <mxCell id="ImtSqPIHlffISOj9dpkc-45" value="" style="ellipse;whiteSpace=wrap;html=1;rounded=1;" vertex="1" parent="WIyWlLk6GJQsqaUBKTNV-1">
          <mxGeometry x="336.5" y="1390" width="20.5" height="20" as="geometry" />
        </mxCell>
        <mxCell id="ImtSqPIHlffISOj9dpkc-48" style="edgeStyle=orthogonalEdgeStyle;rounded=0;orthogonalLoop=1;jettySize=auto;html=1;entryX=0.561;entryY=0.032;entryDx=0;entryDy=0;entryPerimeter=0;" edge="1" parent="WIyWlLk6GJQsqaUBKTNV-1" source="ImtSqPIHlffISOj9dpkc-45" target="ImtSqPIHlffISOj9dpkc-41">
          <mxGeometry relative="1" as="geometry" />
        </mxCell>
        <mxCell id="ImtSqPIHlffISOj9dpkc-50" style="edgeStyle=orthogonalEdgeStyle;rounded=0;orthogonalLoop=1;jettySize=auto;html=1;entryX=0.567;entryY=-0.028;entryDx=0;entryDy=0;entryPerimeter=0;" edge="1" parent="WIyWlLk6GJQsqaUBKTNV-1" source="ImtSqPIHlffISOj9dpkc-18" target="ImtSqPIHlffISOj9dpkc-21">
          <mxGeometry relative="1" as="geometry" />
        </mxCell>
        <mxCell id="ImtSqPIHlffISOj9dpkc-51" style="edgeStyle=orthogonalEdgeStyle;rounded=0;orthogonalLoop=1;jettySize=auto;html=1;entryX=0.5;entryY=0;entryDx=0;entryDy=0;entryPerimeter=0;" edge="1" parent="WIyWlLk6GJQsqaUBKTNV-1" source="ImtSqPIHlffISOj9dpkc-21" target="ImtSqPIHlffISOj9dpkc-22">
          <mxGeometry relative="1" as="geometry" />
        </mxCell>
        <mxCell id="ImtSqPIHlffISOj9dpkc-52" style="edgeStyle=orthogonalEdgeStyle;rounded=0;orthogonalLoop=1;jettySize=auto;html=1;entryX=0.5;entryY=0;entryDx=0;entryDy=0;entryPerimeter=0;" edge="1" parent="WIyWlLk6GJQsqaUBKTNV-1" source="ImtSqPIHlffISOj9dpkc-22" target="ImtSqPIHlffISOj9dpkc-23">
          <mxGeometry relative="1" as="geometry" />
        </mxCell>
        <mxCell id="ImtSqPIHlffISOj9dpkc-54" value="ture" style="text;html=1;align=center;verticalAlign=middle;resizable=0;points=[];autosize=1;strokeColor=none;fillColor=none;" vertex="1" parent="WIyWlLk6GJQsqaUBKTNV-1">
          <mxGeometry x="360" y="948" width="40" height="30" as="geometry" />
        </mxCell>
        <mxCell id="ImtSqPIHlffISOj9dpkc-55" style="edgeStyle=orthogonalEdgeStyle;rounded=0;orthogonalLoop=1;jettySize=auto;html=1;entryX=0.5;entryY=1;entryDx=0;entryDy=0;entryPerimeter=0;" edge="1" parent="WIyWlLk6GJQsqaUBKTNV-1" source="ImtSqPIHlffISOj9dpkc-22" target="ImtSqPIHlffISOj9dpkc-15">
          <mxGeometry relative="1" as="geometry">
            <Array as="points">
              <mxPoint x="570" y="925" />
              <mxPoint x="570" y="580" />
            </Array>
          </mxGeometry>
        </mxCell>
        <mxCell id="ImtSqPIHlffISOj9dpkc-56" value="ture" style="text;html=1;align=center;verticalAlign=middle;resizable=0;points=[];autosize=1;strokeColor=none;fillColor=none;" vertex="1" parent="WIyWlLk6GJQsqaUBKTNV-1">
          <mxGeometry x="385" y="670" width="40" height="30" as="geometry" />
        </mxCell>
        <mxCell id="ImtSqPIHlffISOj9dpkc-58" value="End" style="strokeWidth=2;html=1;shape=mxgraph.flowchart.start_1;whiteSpace=wrap;" vertex="1" parent="WIyWlLk6GJQsqaUBKTNV-1">
          <mxGeometry x="1180" y="1540" width="100" height="60" as="geometry" />
        </mxCell>
      </root>
    </mxGraphModel>
  </diagram>
</mxfile>
